<?xml version="1.0"?>
<svg xmlns="http://www.w3.org/2000/svg" id="Layer_5" enable-background="new 0 0 64 64" height="512px" viewBox="0 0 64 64" width="512px"><g><g><path d="m49 29.697v28.303c0 2.757 2.243 5 5 5s5-2.243 5-5v-28.303l-5-7.5zm2 1.303h2v22h-2zm6 27c0 1.654-1.346 3-3 3s-3-1.346-3-3v-3h6zm0-5h-2v-22h2zm-5.132-24 2.132-3.197 2.132 3.197z" data-original="#000000" class="active-path" data-old_color="#000000" fill="#8400E2"/><path d="m56 10c-1.654 0-3 1.346-3 3s1.346 3 3 3 3-1.346 3-3-1.346-3-3-3zm0 4c-.551 0-1-.449-1-1s.449-1 1-1 1 .449 1 1-.449 1-1 1z" data-original="#000000" class="active-path" data-old_color="#000000" fill="#8400E2"/><path d="m62.941 11.956c-.458-4.051-3.723-7.365-7.763-7.88-3.843-.49-7.543 1.514-9.237 4.924h-16.682c-2.582-4.877-7.713-8-13.259-8-8.271 0-15 6.729-15 15v.215c0 2.653.707 5.267 2.043 7.558l4.216 7.227h-1.839l-.288.504c-.169.295-4.132 7.336-4.132 16.496v1h4.219l2 8h10.781v6h23v-25c0-3.859-3.14-7-7-7h-9.259l4.216-7.227c.513-.879.93-1.81 1.255-2.773h2.788v-4h2v4h6v-4h4.94c1.514 3.059 4.607 5 8.06 5 2.56 0 5.007-1.096 6.714-3.006 1.705-1.909 2.516-4.474 2.227-7.038zm-58.17 10.81c-1.159-1.986-1.771-4.251-1.771-6.551v-.215c0-7.168 5.832-13 13-13 4.443 0 8.579 2.312 10.949 6h-.949c-1.654 0-3 1.346-3 3v1h-.146c-2.133 0-3.888 1.669-3.995 3.793l-.03.535c-.395-.373-.744-.798-1.029-1.273l-1.8-2.999-1.799 3c-.286.476-.633.905-1.029 1.278l-.03-.534c-.107-2.131-1.862-3.8-3.996-3.8h-.146c-2.206 0-4 1.794-4 4s1.794 4 4 4c.807 0 1.6-.123 2.356-.356l.586 10.356h-2.368zm20.229-5.766c0 1.103-.897 2-2 2-.776 0-1.534-.154-2.238-.436l.094-1.664c.054-1.066.931-1.9 1.998-1.9h.146c.064 0 .126.01.189.016.303.835.96 1.492 1.795 1.795.006.063.016.125.016.189zm-6.307 2.728-.638 11.272h-4.11l-.637-11.254c1.051-.664 1.952-1.569 2.607-2.662l.085-.14.084.141c.654 1.089 1.561 1.98 2.609 2.643zm-7.455-1.16c-.704.281-1.463.432-2.238.432-1.103 0-2-.897-2-2s.897-2 2-2h.146c1.066 0 1.944.834 1.998 1.907zm27.762 42.432h-19v-4h1c2.757 0 5-2.243 5-5h-2c0 1.654-1.346 3-3 3h-12.219l-1.5-6h1.719v-2h-5.983c.231-6.814 2.753-12.348 3.586-14h13.616l.477 1.906c.897 3.588 4.106 6.094 7.804 6.094 1.378 0 2.5 1.121 2.5 2.5s-1.122 2.5-2.5 2.5h-1.5v2.162l.051.154c.031.093 3.122 8.977 11.949 9.621zm-5-28c2.757 0 5 2.243 5 5v17.945c-6.652-.561-9.395-6.567-9.947-7.979 2.221-.274 3.947-2.172 3.947-4.466 0-2.481-2.019-4.5-4.5-4.5-2.778 0-5.19-1.883-5.864-4.578l-.355-1.422zm-6.771-10.234-4.803 8.234h-2.367l.587-10.37c.755.233 1.546.37 2.354.37 2.206 0 4-1.794 4-4v4h1.07c-.24.607-.512 1.201-.841 1.766zm31.993-5.104c-1.327 1.485-3.231 2.338-5.222 2.338-2.863 0-5.409-1.717-6.486-4.375l-.253-.625h-8.261v4h-2v-4h-6v4h-2v-4h-3c-.551 0-1-.449-1-1v-2c0-.551.449-1 1-1h21.261l.253-.625c1.193-2.946 4.244-4.721 7.411-4.316 3.138.4 5.673 2.974 6.029 6.121.229 2.028-.386 3.975-1.732 5.482z" data-original="#000000" class="active-path" data-old_color="#000000" fill="#8400E2"/><path d="m12 40c-1.103 0-2-.897-2-2h-2c0 2.206 1.794 4 4 4s4-1.794 4-4h-2c0 1.103-.897 2-2 2z" data-original="#000000" class="active-path" data-old_color="#000000" fill="#8400E2"/></g></g> </svg>
